<svg id="Layer_1" data-name="Layer 1" xmlns="http://www.w3.org/2000/svg" viewBox="0 0 1079.09 1079.94"><defs><style>.cls-1{fill:#bdffff;}</style></defs><title>container-1 bg</title><path class="cls-1" d="M1,295.88s15.35-120.59,121.24-95.59,202.94-83.82,202.94-83.82S376.65,42.88,344.29,1H1Z" transform="translate(-1 -0.06)"/><path class="cls-1" d="M454.47,334.42s25,54.41-57.35,108.82-24.61,145.59-24.61,145.59-22.45-197.06,170.2-97.06c0,0,101.47,46.12,39.71-138.71S454.47,334.42,454.47,334.42Z" transform="translate(-1 -0.06)"/><circle class="cls-1" cx="582.82" cy="106.85" r="33.09"/><circle class="cls-1" cx="763.25" cy="891.51" r="54.78"/><ellipse class="cls-1" cx="81.94" cy="530.11" rx="81.94" ry="44.12"/><ellipse class="cls-1" cx="747.65" cy="588.77" rx="27" ry="14.53"/><ellipse class="cls-1" cx="407.24" cy="793.09" rx="131.76" ry="88.51"/><path class="cls-1" d="M909.47,472.82s-120.59,115.2,0,141.43,116.18,320.34,116.18,320.34-5.89,104.06-211.77,145.41H1080V402.24S1008,419.88,909.47,472.82Z" transform="translate(-1 -0.06)"/><path class="cls-1" d="M1014.7,65.45a65.34,65.34,0,0,0,65.39,65.3L1080,.06A65.36,65.36,0,0,0,1014.7,65.45Z" transform="translate(-1 -0.06)"/><polygon class="cls-1" points="1.79 1079.94 104.06 1079.94 49.88 1008.98 1.79 1079.94"/><polygon class="cls-1" points="458.06 993.54 495.13 993.54 475.49 922.58 458.06 993.54"/><polygon class="cls-1" points="64.26 754.15 84.8 785 132.98 729.33 64.26 754.15"/><polygon class="cls-1" points="758.84 379.62 873.71 264.75 733.15 245.91 758.84 379.62"/><polygon class="cls-1" points="232 354.65 284.94 354.65 256.89 331.22 232 354.65"/></svg>